<mxfile host="app.diagrams.net" agent="Mozilla/5.0 (Windows NT 10.0; Win64; x64) AppleWebKit/537.36 (KHTML, like Gecko) Chrome/132.0.0.0 Safari/537.36" version="26.0.10">
  <diagram name="Page-1" id="vdN65WVOUSUoNXqUONqW">
    <mxGraphModel dx="1157" dy="998" grid="1" gridSize="10" guides="1" tooltips="1" connect="1" arrows="1" fold="1" page="1" pageScale="1" pageWidth="850" pageHeight="1100" math="0" shadow="0">
      <root>
        <mxCell id="0" />
        <mxCell id="1" parent="0" />
        <mxCell id="19wFOHCZdqjI787uc1kk-1" value="" style="rounded=0;whiteSpace=wrap;html=1;" vertex="1" parent="1">
          <mxGeometry x="240" y="160" width="360" height="850" as="geometry" />
        </mxCell>
        <mxCell id="19wFOHCZdqjI787uc1kk-2" value="" style="endArrow=classic;html=1;rounded=0;entryX=-0.003;entryY=0.059;entryDx=0;entryDy=0;entryPerimeter=0;strokeWidth=2;" edge="1" parent="1">
          <mxGeometry width="50" height="50" relative="1" as="geometry">
            <mxPoint x="121.08" y="262" as="sourcePoint" />
            <mxPoint x="240.00000000000009" y="262.1199999999999" as="targetPoint" />
          </mxGeometry>
        </mxCell>
        <mxCell id="19wFOHCZdqjI787uc1kk-5" value="DCK_t/DCK_c" style="text;html=1;align=center;verticalAlign=middle;whiteSpace=wrap;rounded=0;fontStyle=1;fontSize=14;" vertex="1" parent="1">
          <mxGeometry x="19" y="241" width="101.08" height="40" as="geometry" />
        </mxCell>
        <mxCell id="19wFOHCZdqjI787uc1kk-6" value="" style="endArrow=classic;html=1;rounded=0;entryX=-0.003;entryY=0.059;entryDx=0;entryDy=0;entryPerimeter=0;strokeWidth=2;" edge="1" parent="1">
          <mxGeometry width="50" height="50" relative="1" as="geometry">
            <mxPoint x="600" y="200" as="sourcePoint" />
            <mxPoint x="719" y="200" as="targetPoint" />
          </mxGeometry>
        </mxCell>
        <mxCell id="19wFOHCZdqjI787uc1kk-7" value="" style="endArrow=classic;html=1;rounded=0;entryX=-0.003;entryY=0.059;entryDx=0;entryDy=0;entryPerimeter=0;strokeWidth=2;" edge="1" parent="1">
          <mxGeometry width="50" height="50" relative="1" as="geometry">
            <mxPoint x="601" y="217" as="sourcePoint" />
            <mxPoint x="720" y="217" as="targetPoint" />
          </mxGeometry>
        </mxCell>
        <mxCell id="19wFOHCZdqjI787uc1kk-8" value="QACK_A_t/QACK_A_c&lt;div&gt;QBCK_A_t/QBCK_A_c&lt;/div&gt;&lt;div&gt;QCCK_A_t/QCCK_A_c&lt;/div&gt;&lt;div&gt;QDCK_A_t/QDCK_A_c&lt;/div&gt;&lt;div&gt;&lt;br&gt;&lt;/div&gt;&lt;div&gt;QACK_B_t/QACK_B_c&lt;/div&gt;&lt;div&gt;QBCK_B_t/QBCK_B_c&lt;/div&gt;&lt;div&gt;QCCK_B_t/QCCK_B_c&lt;/div&gt;&lt;div&gt;QDCK_B_t/QDCK_B_c&lt;/div&gt;" style="text;html=1;align=center;verticalAlign=middle;whiteSpace=wrap;rounded=0;fontStyle=1;fontSize=14;" vertex="1" parent="1">
          <mxGeometry x="720" y="184" width="170" height="163" as="geometry" />
        </mxCell>
        <mxCell id="19wFOHCZdqjI787uc1kk-9" value="" style="endArrow=classic;html=1;rounded=0;entryX=-0.003;entryY=0.059;entryDx=0;entryDy=0;entryPerimeter=0;strokeWidth=2;" edge="1" parent="1">
          <mxGeometry width="50" height="50" relative="1" as="geometry">
            <mxPoint x="600" y="234" as="sourcePoint" />
            <mxPoint x="719" y="234" as="targetPoint" />
          </mxGeometry>
        </mxCell>
        <mxCell id="19wFOHCZdqjI787uc1kk-10" value="" style="endArrow=classic;html=1;rounded=0;entryX=-0.003;entryY=0.059;entryDx=0;entryDy=0;entryPerimeter=0;strokeWidth=2;" edge="1" parent="1">
          <mxGeometry width="50" height="50" relative="1" as="geometry">
            <mxPoint x="601" y="251" as="sourcePoint" />
            <mxPoint x="720" y="251" as="targetPoint" />
          </mxGeometry>
        </mxCell>
        <mxCell id="19wFOHCZdqjI787uc1kk-11" value="" style="endArrow=classic;html=1;rounded=0;entryX=-0.003;entryY=0.059;entryDx=0;entryDy=0;entryPerimeter=0;strokeWidth=2;" edge="1" parent="1">
          <mxGeometry width="50" height="50" relative="1" as="geometry">
            <mxPoint x="600" y="281" as="sourcePoint" />
            <mxPoint x="719" y="281" as="targetPoint" />
          </mxGeometry>
        </mxCell>
        <mxCell id="19wFOHCZdqjI787uc1kk-12" value="" style="endArrow=classic;html=1;rounded=0;entryX=-0.003;entryY=0.059;entryDx=0;entryDy=0;entryPerimeter=0;strokeWidth=2;" edge="1" parent="1">
          <mxGeometry width="50" height="50" relative="1" as="geometry">
            <mxPoint x="601" y="298" as="sourcePoint" />
            <mxPoint x="720" y="298" as="targetPoint" />
          </mxGeometry>
        </mxCell>
        <mxCell id="19wFOHCZdqjI787uc1kk-13" value="" style="endArrow=classic;html=1;rounded=0;entryX=-0.003;entryY=0.059;entryDx=0;entryDy=0;entryPerimeter=0;strokeWidth=2;" edge="1" parent="1">
          <mxGeometry width="50" height="50" relative="1" as="geometry">
            <mxPoint x="600" y="315" as="sourcePoint" />
            <mxPoint x="719" y="315" as="targetPoint" />
          </mxGeometry>
        </mxCell>
        <mxCell id="19wFOHCZdqjI787uc1kk-14" value="" style="endArrow=classic;html=1;rounded=0;entryX=-0.003;entryY=0.059;entryDx=0;entryDy=0;entryPerimeter=0;strokeWidth=2;" edge="1" parent="1">
          <mxGeometry width="50" height="50" relative="1" as="geometry">
            <mxPoint x="601" y="332" as="sourcePoint" />
            <mxPoint x="720" y="332" as="targetPoint" />
          </mxGeometry>
        </mxCell>
        <mxCell id="19wFOHCZdqjI787uc1kk-15" value="" style="endArrow=classic;html=1;rounded=0;entryX=-0.003;entryY=0.059;entryDx=0;entryDy=0;entryPerimeter=0;strokeWidth=2;" edge="1" parent="1">
          <mxGeometry width="50" height="50" relative="1" as="geometry">
            <mxPoint x="121.07999999999998" y="419.5" as="sourcePoint" />
            <mxPoint x="240.00000000000009" y="419.6199999999999" as="targetPoint" />
          </mxGeometry>
        </mxCell>
        <mxCell id="19wFOHCZdqjI787uc1kk-16" value="DCS0_A_n&lt;div&gt;DCS1_A_n&lt;/div&gt;&lt;div&gt;&lt;br&gt;&lt;/div&gt;&lt;div&gt;DCS0_B_n&lt;/div&gt;&lt;div&gt;DCS1_B_n&lt;/div&gt;" style="text;html=1;align=center;verticalAlign=middle;whiteSpace=wrap;rounded=0;fontStyle=1;fontSize=14;" vertex="1" parent="1">
          <mxGeometry x="19" y="406.5" width="101.08" height="90" as="geometry" />
        </mxCell>
        <mxCell id="19wFOHCZdqjI787uc1kk-17" value="" style="endArrow=classic;html=1;rounded=0;entryX=-0.003;entryY=0.059;entryDx=0;entryDy=0;entryPerimeter=0;strokeWidth=2;" edge="1" parent="1">
          <mxGeometry width="50" height="50" relative="1" as="geometry">
            <mxPoint x="121.07999999999998" y="436.5" as="sourcePoint" />
            <mxPoint x="240.00000000000009" y="436.6199999999999" as="targetPoint" />
          </mxGeometry>
        </mxCell>
        <mxCell id="19wFOHCZdqjI787uc1kk-18" value="" style="endArrow=classic;html=1;rounded=0;entryX=-0.003;entryY=0.059;entryDx=0;entryDy=0;entryPerimeter=0;strokeWidth=2;" edge="1" parent="1">
          <mxGeometry width="50" height="50" relative="1" as="geometry">
            <mxPoint x="121.07999999999998" y="469.5" as="sourcePoint" />
            <mxPoint x="240.00000000000009" y="469.6199999999999" as="targetPoint" />
          </mxGeometry>
        </mxCell>
        <mxCell id="19wFOHCZdqjI787uc1kk-19" value="" style="endArrow=classic;html=1;rounded=0;entryX=-0.003;entryY=0.059;entryDx=0;entryDy=0;entryPerimeter=0;strokeWidth=2;" edge="1" parent="1">
          <mxGeometry width="50" height="50" relative="1" as="geometry">
            <mxPoint x="121.07999999999998" y="486.5" as="sourcePoint" />
            <mxPoint x="240.00000000000009" y="486.6199999999999" as="targetPoint" />
          </mxGeometry>
        </mxCell>
        <mxCell id="19wFOHCZdqjI787uc1kk-20" value="" style="endArrow=classic;html=1;rounded=0;entryX=-0.003;entryY=0.059;entryDx=0;entryDy=0;entryPerimeter=0;strokeWidth=2;" edge="1" parent="1">
          <mxGeometry width="50" height="50" relative="1" as="geometry">
            <mxPoint x="600" y="386" as="sourcePoint" />
            <mxPoint x="719" y="386" as="targetPoint" />
          </mxGeometry>
        </mxCell>
        <mxCell id="19wFOHCZdqjI787uc1kk-21" value="" style="endArrow=classic;html=1;rounded=0;entryX=-0.003;entryY=0.059;entryDx=0;entryDy=0;entryPerimeter=0;strokeWidth=2;" edge="1" parent="1">
          <mxGeometry width="50" height="50" relative="1" as="geometry">
            <mxPoint x="601" y="403" as="sourcePoint" />
            <mxPoint x="720" y="403" as="targetPoint" />
          </mxGeometry>
        </mxCell>
        <mxCell id="19wFOHCZdqjI787uc1kk-22" value="QACS0_A_n&lt;div&gt;QBCS0_A_n&lt;/div&gt;&lt;div&gt;QACS1_A_n&lt;/div&gt;&lt;div&gt;QBCS1_A_n&lt;/div&gt;&lt;div&gt;&lt;br&gt;&lt;/div&gt;&lt;div&gt;QACS0_B_n&lt;div&gt;QBCS0_B_n&lt;/div&gt;&lt;div&gt;QACS1_B_n&lt;/div&gt;&lt;div&gt;QBCS1_B_n&lt;/div&gt;&lt;/div&gt;" style="text;html=1;align=center;verticalAlign=middle;whiteSpace=wrap;rounded=0;fontStyle=1;fontSize=14;" vertex="1" parent="1">
          <mxGeometry x="720" y="370" width="90" height="163" as="geometry" />
        </mxCell>
        <mxCell id="19wFOHCZdqjI787uc1kk-23" value="" style="endArrow=classic;html=1;rounded=0;entryX=-0.003;entryY=0.059;entryDx=0;entryDy=0;entryPerimeter=0;strokeWidth=2;" edge="1" parent="1">
          <mxGeometry width="50" height="50" relative="1" as="geometry">
            <mxPoint x="600" y="420" as="sourcePoint" />
            <mxPoint x="719" y="420" as="targetPoint" />
          </mxGeometry>
        </mxCell>
        <mxCell id="19wFOHCZdqjI787uc1kk-24" value="" style="endArrow=classic;html=1;rounded=0;entryX=-0.003;entryY=0.059;entryDx=0;entryDy=0;entryPerimeter=0;strokeWidth=2;" edge="1" parent="1">
          <mxGeometry width="50" height="50" relative="1" as="geometry">
            <mxPoint x="601" y="437" as="sourcePoint" />
            <mxPoint x="720" y="437" as="targetPoint" />
          </mxGeometry>
        </mxCell>
        <mxCell id="19wFOHCZdqjI787uc1kk-25" value="" style="endArrow=classic;html=1;rounded=0;entryX=-0.003;entryY=0.059;entryDx=0;entryDy=0;entryPerimeter=0;strokeWidth=2;" edge="1" parent="1">
          <mxGeometry width="50" height="50" relative="1" as="geometry">
            <mxPoint x="600" y="467" as="sourcePoint" />
            <mxPoint x="719" y="467" as="targetPoint" />
          </mxGeometry>
        </mxCell>
        <mxCell id="19wFOHCZdqjI787uc1kk-26" value="" style="endArrow=classic;html=1;rounded=0;entryX=-0.003;entryY=0.059;entryDx=0;entryDy=0;entryPerimeter=0;strokeWidth=2;" edge="1" parent="1">
          <mxGeometry width="50" height="50" relative="1" as="geometry">
            <mxPoint x="601" y="484" as="sourcePoint" />
            <mxPoint x="720" y="484" as="targetPoint" />
          </mxGeometry>
        </mxCell>
        <mxCell id="19wFOHCZdqjI787uc1kk-27" value="" style="endArrow=classic;html=1;rounded=0;entryX=-0.003;entryY=0.059;entryDx=0;entryDy=0;entryPerimeter=0;strokeWidth=2;" edge="1" parent="1">
          <mxGeometry width="50" height="50" relative="1" as="geometry">
            <mxPoint x="600" y="501" as="sourcePoint" />
            <mxPoint x="719" y="501" as="targetPoint" />
          </mxGeometry>
        </mxCell>
        <mxCell id="19wFOHCZdqjI787uc1kk-28" value="" style="endArrow=classic;html=1;rounded=0;entryX=-0.003;entryY=0.059;entryDx=0;entryDy=0;entryPerimeter=0;strokeWidth=2;" edge="1" parent="1">
          <mxGeometry width="50" height="50" relative="1" as="geometry">
            <mxPoint x="601" y="518" as="sourcePoint" />
            <mxPoint x="720" y="518" as="targetPoint" />
          </mxGeometry>
        </mxCell>
        <mxCell id="19wFOHCZdqjI787uc1kk-29" value="" style="endArrow=classic;html=1;rounded=0;entryX=-0.003;entryY=0.059;entryDx=0;entryDy=0;entryPerimeter=0;strokeWidth=2;" edge="1" parent="1">
          <mxGeometry width="50" height="50" relative="1" as="geometry">
            <mxPoint x="600" y="586" as="sourcePoint" />
            <mxPoint x="719" y="586" as="targetPoint" />
          </mxGeometry>
        </mxCell>
        <mxCell id="19wFOHCZdqjI787uc1kk-30" value="" style="endArrow=classic;html=1;rounded=0;entryX=-0.003;entryY=0.059;entryDx=0;entryDy=0;entryPerimeter=0;strokeWidth=2;" edge="1" parent="1">
          <mxGeometry width="50" height="50" relative="1" as="geometry">
            <mxPoint x="601" y="603" as="sourcePoint" />
            <mxPoint x="720" y="603" as="targetPoint" />
          </mxGeometry>
        </mxCell>
        <mxCell id="19wFOHCZdqjI787uc1kk-31" value="QACA[13:0]_A&lt;div&gt;QBCA[13:0]_A&lt;/div&gt;&lt;div&gt;&lt;br&gt;&lt;/div&gt;&lt;div&gt;QACA[13:0]_B&lt;div&gt;QBCA[13:0]_B&lt;/div&gt;&lt;/div&gt;" style="text;html=1;align=center;verticalAlign=middle;whiteSpace=wrap;rounded=0;fontStyle=1;fontSize=14;" vertex="1" parent="1">
          <mxGeometry x="722" y="569" width="98" height="100" as="geometry" />
        </mxCell>
        <mxCell id="19wFOHCZdqjI787uc1kk-32" value="" style="endArrow=classic;html=1;rounded=0;entryX=-0.003;entryY=0.059;entryDx=0;entryDy=0;entryPerimeter=0;strokeWidth=2;" edge="1" parent="1">
          <mxGeometry width="50" height="50" relative="1" as="geometry">
            <mxPoint x="600" y="636" as="sourcePoint" />
            <mxPoint x="719" y="636" as="targetPoint" />
          </mxGeometry>
        </mxCell>
        <mxCell id="19wFOHCZdqjI787uc1kk-33" value="" style="endArrow=classic;html=1;rounded=0;entryX=-0.003;entryY=0.059;entryDx=0;entryDy=0;entryPerimeter=0;strokeWidth=2;" edge="1" parent="1">
          <mxGeometry width="50" height="50" relative="1" as="geometry">
            <mxPoint x="601" y="653" as="sourcePoint" />
            <mxPoint x="720" y="653" as="targetPoint" />
          </mxGeometry>
        </mxCell>
        <mxCell id="19wFOHCZdqjI787uc1kk-38" value="" style="endArrow=classic;html=1;rounded=0;entryX=-0.003;entryY=0.059;entryDx=0;entryDy=0;entryPerimeter=0;strokeWidth=2;" edge="1" parent="1">
          <mxGeometry width="50" height="50" relative="1" as="geometry">
            <mxPoint x="120.07999999999998" y="600" as="sourcePoint" />
            <mxPoint x="239.00000000000009" y="600.1199999999999" as="targetPoint" />
          </mxGeometry>
        </mxCell>
        <mxCell id="19wFOHCZdqjI787uc1kk-39" value="" style="endArrow=classic;html=1;rounded=0;entryX=-0.003;entryY=0.059;entryDx=0;entryDy=0;entryPerimeter=0;strokeWidth=2;" edge="1" parent="1">
          <mxGeometry width="50" height="50" relative="1" as="geometry">
            <mxPoint x="120.07999999999998" y="636" as="sourcePoint" />
            <mxPoint x="239.00000000000009" y="636.1199999999999" as="targetPoint" />
          </mxGeometry>
        </mxCell>
        <mxCell id="19wFOHCZdqjI787uc1kk-40" value="DCA[6:0]_A&lt;div&gt;&lt;br&gt;&lt;/div&gt;&lt;div&gt;DCA[6:0]_B&lt;/div&gt;" style="text;html=1;align=center;verticalAlign=middle;whiteSpace=wrap;rounded=0;fontStyle=1;fontSize=14;" vertex="1" parent="1">
          <mxGeometry x="19" y="589" width="101.08" height="56" as="geometry" />
        </mxCell>
      </root>
    </mxGraphModel>
  </diagram>
</mxfile>
